# xmcd
#
# Track frame offsets: 
#        150
#        24165
#        45423
#        67092
#        87165
#        102364
#        120597
#        133330
#        153984
#        172630
#        187268
#
# Disc length: 2561 seconds
#
# Revision: 0
# Processed by: cddbd v1.5.2PL0 Copyright (c) Steve Scherf et al.
# Submitted via: ExactAudioCopy v1.3
#
DISCID=8a09ff0b
DTITLE=Ellen Starski - The Days When Peonies Prayed For The Ants
DYEAR=2018
DGENRE=Country
TTITLE0=Ode to Nanny And Cookie
TTITLE1=Honey I'm Not Him
TTITLE2=Missing You
TTITLE3=Slip Of Paper
TTITLE4=Separated By Time
TTITLE5=Taken By The Breeze
TTITLE6=Miss You Mary
TTITLE7=Daughter Of The Sea
TTITLE8=Fairweather Friend
TTITLE9=Chasing The Sun
TTITLE10=The Days When Peonies Prayed For The Ants
EXTD=
EXTT0=
EXTT1=
EXTT2=
EXTT3=
EXTT4=
EXTT5=
EXTT6=
EXTT7=
EXTT8=
EXTT9=
EXTT10=
PLAYORDER=
